<svg width="68" height="65" viewBox="0 0 68 65" fill="none" xmlns="http://www.w3.org/2000/svg">
<g clip-path="url(#clip0_19_34)">
<path d="M24.7148 13.6141L14.2633 27.942L19.9186 32.0673L31.6765 15.9484C28.654 13.3045 25.776 13.2906 24.7148 13.6141Z" fill="url(#paint0_linear_19_34)"/>
<path d="M34.9873 18.9363C30.9056 13.9363 25.778 14.2293 23.7244 15.0009C30.2873 4.75731 38.4384 10.3803 41.6936 14.4722L34.9873 18.9363Z" fill="url(#paint1_linear_19_34)"/>
<path d="M33.4355 19.5139C32.8006 19.1188 32.8081 18.1922 33.4493 17.8074L42.02 12.6645C42.6896 12.2627 43.5408 12.7492 43.5345 13.5301L43.4503 23.9536C43.444 24.7345 42.5851 25.2071 41.922 24.7945L33.4355 19.5139Z" fill="#3CB48E"/>
<path d="M19.7165 55.0595L37.4512 55.1268L37.4778 48.1269L17.5262 48.0511C17.1563 52.0497 18.8323 54.3894 19.7165 55.0595Z" fill="url(#paint2_linear_19_34)"/>
<path d="M18.0059 43.6173C16.3482 49.8553 19.5917 53.8375 21.4206 55.0489C9.2745 55.7373 9.05125 45.8374 10.4579 40.8014L18.0059 43.6173Z" fill="url(#paint3_linear_19_34)"/>
<path d="M19.3836 44.5358C19.4357 45.2818 18.6806 45.819 17.993 45.5251L8.80205 41.5967C8.08396 41.2898 7.97905 40.315 8.61538 39.8624L17.1091 33.8198C17.7454 33.3671 18.6319 33.7858 18.6864 34.5649L19.3836 44.5358Z" fill="#3CB48E"/>
<path d="M27.311 43V26.9H35.062C36.5647 26.9 37.8603 27.1453 38.949 27.636C40.053 28.1267 40.904 28.832 41.502 29.752C42.1 30.6567 42.399 31.73 42.399 32.972C42.399 34.214 42.1 35.2873 41.502 36.192C40.904 37.0813 40.053 37.7637 38.949 38.239C37.8603 38.7143 36.5647 38.952 35.062 38.952H30.324L32.739 36.721V43H27.311ZM36.948 43L32.992 37.135H38.742L42.744 43H36.948ZM32.739 37.319L30.324 34.858H34.717C35.4683 34.858 36.0203 34.6893 36.373 34.352C36.741 34.0147 36.925 33.5547 36.925 32.972C36.925 32.3893 36.741 31.9293 36.373 31.592C36.0203 31.2547 35.4683 31.086 34.717 31.086H30.324L32.739 28.625V37.319Z" fill="url(#paint4_linear_19_34)"/>
<path d="M27.311 43V26.9H35.062C36.5647 26.9 37.8603 27.1453 38.949 27.636C40.053 28.1267 40.904 28.832 41.502 29.752C42.1 30.6567 42.399 31.73 42.399 32.972C42.399 34.214 42.1 35.2873 41.502 36.192C40.904 37.0967 40.053 37.802 38.949 38.308C37.8603 38.7987 36.5647 39.044 35.062 39.044H30.324L32.739 36.721V43H27.311ZM32.739 37.319L30.324 34.858H34.717C35.4683 34.858 36.0203 34.6893 36.373 34.352C36.741 34.0147 36.925 33.5547 36.925 32.972C36.925 32.3893 36.741 31.9293 36.373 31.592C36.0203 31.2547 35.4683 31.086 34.717 31.086H30.324L32.739 28.625V37.319Z" fill="#3CB48E"/>
<path d="M58.448 37.8644L49.0421 22.8294L43.1077 26.5419L53.6893 43.4563C57.2685 41.6356 58.3531 38.9697 58.448 37.8644Z" fill="url(#paint5_linear_19_34)"/>
<path d="M49.6836 45.4164C55.8438 43.4901 57.4811 38.622 57.5298 36.4288C64.5929 46.3341 56.3392 51.8053 51.3294 53.3027L49.6836 45.4164Z" fill="url(#paint6_linear_19_34)"/>
<path d="M49.7252 43.7612C50.3283 43.319 51.1856 43.671 51.3039 44.4094L52.8856 54.2787C53.0092 55.0498 52.2407 55.6587 51.5183 55.362L41.8758 51.4027C41.1534 51.106 41.0345 50.1329 41.6643 49.6711L49.7252 43.7612Z" fill="#3CB48E"/>
</g>
<defs>
<linearGradient id="paint0_linear_19_34" x1="28.8962" y1="13.8604" x2="17.0429" y2="29.9695" gradientUnits="userSpaceOnUse">
<stop stop-color="#194436"/>
<stop offset="1" stop-color="#3CB48E"/>
</linearGradient>
<linearGradient id="paint1_linear_19_34" x1="41.4418" y1="14.965" x2="26.137" y2="19.0009" gradientUnits="userSpaceOnUse">
<stop stop-color="#3CB48E"/>
<stop offset="1" stop-color="#22634F"/>
</linearGradient>
<linearGradient id="paint2_linear_19_34" x1="17.4647" y1="51.5276" x2="37.4641" y2="51.6863" gradientUnits="userSpaceOnUse">
<stop stop-color="#194436"/>
<stop offset="1" stop-color="#3CB48E"/>
</linearGradient>
<linearGradient id="paint3_linear_19_34" x1="14.032" y1="40.2468" x2="16.4484" y2="55.8204" gradientUnits="userSpaceOnUse">
<stop stop-color="#3CB48E"/>
<stop offset="1" stop-color="#22634F"/>
</linearGradient>
<linearGradient id="paint4_linear_19_34" x1="26.1138" y1="21" x2="43.8862" y2="49" gradientUnits="userSpaceOnUse">
<stop stop-color="#3CB48E"/>
<stop offset="1" stop-color="#194436"/>
</linearGradient>
<linearGradient id="paint5_linear_19_34" x1="56.6624" y1="41.6534" x2="46.1254" y2="24.6542" gradientUnits="userSpaceOnUse">
<stop stop-color="#194436"/>
<stop offset="1" stop-color="#3CB48E"/>
</linearGradient>
<linearGradient id="paint6_linear_19_34" x1="49.4643" y1="51.1623" x2="62.8042" y2="45.7641" gradientUnits="userSpaceOnUse">
<stop stop-color="#3CB48E"/>
<stop offset="1" stop-color="#22634F"/>
</linearGradient>
<clipPath id="clip0_19_34">
<rect width="68" height="64.9729" fill="white"/>
</clipPath>
</defs>
</svg>
