<svg width="250" height="29" viewBox="0 0 250 29" fill="none" xmlns="http://www.w3.org/2000/svg">
<path d="M35.321 24V6.54545H42.5312C43.8381 6.54545 44.9659 6.78125 45.9148 7.25284C46.8693 7.71875 47.6051 8.3892 48.1222 9.2642C48.6392 10.1335 48.8977 11.1648 48.8977 12.358C48.8977 13.5682 48.6335 14.5966 48.1051 15.4432C47.5767 16.2841 46.8267 16.9261 45.8551 17.3693C44.8835 17.8068 43.733 18.0256 42.4034 18.0256H37.8438V14.7017H41.6193C42.2557 14.7017 42.7869 14.6193 43.2131 14.4545C43.6449 14.2841 43.9716 14.0284 44.1932 13.6875C44.4148 13.3409 44.5256 12.8977 44.5256 12.358C44.5256 11.8182 44.4148 11.3722 44.1932 11.0199C43.9716 10.6619 43.6449 10.3949 43.2131 10.2188C42.7813 10.0369 42.25 9.94602 41.6193 9.94602H39.5398V24H35.321ZM45.1477 16.0227L49.4943 24H44.892L40.6307 16.0227H45.1477ZM57.0732 24.2472C55.7038 24.2472 54.522 23.9773 53.5277 23.4375C52.5391 22.892 51.7777 22.1165 51.2436 21.1108C50.7152 20.0994 50.451 18.8977 50.451 17.5057C50.451 16.1534 50.718 14.9716 51.2521 13.9602C51.7862 12.9432 52.5391 12.1534 53.5107 11.5909C54.4822 11.0227 55.6271 10.7386 56.9453 10.7386C57.8771 10.7386 58.7294 10.8835 59.5021 11.1733C60.2749 11.4631 60.9425 11.892 61.505 12.4602C62.0675 13.0284 62.505 13.7301 62.8175 14.5653C63.13 15.3949 63.2862 16.3466 63.2862 17.4205V18.4602H51.9084V16.0398H59.4084C59.4027 15.5966 59.2976 15.2017 59.093 14.8551C58.8885 14.5085 58.6072 14.2386 58.2493 14.0455C57.897 13.8466 57.4908 13.7472 57.0305 13.7472C56.5646 13.7472 56.147 13.8523 55.7777 14.0625C55.4084 14.267 55.1158 14.5483 54.8999 14.9062C54.6839 15.2585 54.5703 15.6591 54.5589 16.108V18.571C54.5589 19.1051 54.6641 19.5739 54.8743 19.9773C55.0845 20.375 55.3828 20.6847 55.7692 20.9062C56.1555 21.1278 56.6158 21.2386 57.1499 21.2386C57.5192 21.2386 57.8544 21.1875 58.1555 21.0852C58.4567 20.983 58.7152 20.8324 58.9311 20.6335C59.147 20.4347 59.3089 20.1903 59.4169 19.9006L63.2436 20.0114C63.0845 20.8693 62.7351 21.6165 62.1953 22.2528C61.6612 22.8835 60.9595 23.375 60.0902 23.7273C59.2209 24.0739 58.2152 24.2472 57.0732 24.2472ZM71.5256 24.2472C70.1449 24.2472 68.9602 23.9631 67.9716 23.3949C66.9886 22.8267 66.233 22.0369 65.7045 21.0256C65.1761 20.0085 64.9119 18.8324 64.9119 17.4972C64.9119 16.1562 65.1761 14.9801 65.7045 13.9688C66.2386 12.9517 66.9972 12.1591 67.9801 11.5909C68.9688 11.0227 70.1477 10.7386 71.517 10.7386C72.7273 10.7386 73.7813 10.9574 74.679 11.3949C75.5824 11.8324 76.2869 12.4517 76.7926 13.2528C77.304 14.0483 77.5739 14.983 77.6023 16.0568H73.7074C73.6278 15.3864 73.4006 14.8608 73.0256 14.4801C72.6563 14.0994 72.1733 13.9091 71.5767 13.9091C71.0938 13.9091 70.6705 14.0455 70.3068 14.3182C69.9432 14.5852 69.6591 14.983 69.4545 15.5114C69.2557 16.0341 69.1562 16.6818 69.1562 17.4545C69.1562 18.2273 69.2557 18.8807 69.4545 19.4148C69.6591 19.9432 69.9432 20.3437 70.3068 20.6165C70.6705 20.8835 71.0938 21.017 71.5767 21.017C71.9631 21.017 72.304 20.9347 72.5994 20.7699C72.9006 20.6051 73.1477 20.3636 73.3409 20.0455C73.5341 19.7216 73.6562 19.3295 73.7074 18.8693H77.6023C77.5625 19.9489 77.2926 20.892 76.7926 21.6989C76.2983 22.5057 75.6023 23.1335 74.7045 23.5824C73.8125 24.0256 72.7528 24.2472 71.5256 24.2472ZM82.2834 28.9091C81.7834 28.9091 81.3118 28.8693 80.8686 28.7898C80.4254 28.7159 80.0447 28.6165 79.7266 28.4915L80.647 25.4659C81.0561 25.6023 81.4254 25.6818 81.755 25.7045C82.0902 25.7273 82.3771 25.6733 82.6158 25.5426C82.8601 25.4176 83.0476 25.1932 83.1783 24.8693L83.3402 24.4773L78.6868 10.9091H83.0504L85.4624 20.25H85.5987L88.0447 10.9091H92.4339L87.4993 25.2528C87.2607 25.9688 86.9226 26.5994 86.4851 27.1449C86.0533 27.696 85.4936 28.1278 84.8061 28.4403C84.1243 28.7528 83.2834 28.9091 82.2834 28.9091ZM99.7209 24.2472C98.3402 24.2472 97.1555 23.9631 96.1669 23.3949C95.1839 22.8267 94.4283 22.0369 93.8999 21.0256C93.3714 20.0085 93.1072 18.8324 93.1072 17.4972C93.1072 16.1562 93.3714 14.9801 93.8999 13.9688C94.4339 12.9517 95.1925 12.1591 96.1754 11.5909C97.1641 11.0227 98.343 10.7386 99.7124 10.7386C100.923 10.7386 101.977 10.9574 102.874 11.3949C103.778 11.8324 104.482 12.4517 104.988 13.2528C105.499 14.0483 105.769 14.983 105.798 16.0568H101.903C101.823 15.3864 101.596 14.8608 101.221 14.4801C100.852 14.0994 100.369 13.9091 99.772 13.9091C99.2891 13.9091 98.8658 14.0455 98.5021 14.3182C98.1385 14.5852 97.8544 14.983 97.6499 15.5114C97.451 16.0341 97.3516 16.6818 97.3516 17.4545C97.3516 18.2273 97.451 18.8807 97.6499 19.4148C97.8544 19.9432 98.1385 20.3437 98.5021 20.6165C98.8658 20.8835 99.2891 21.017 99.772 21.017C100.158 21.017 100.499 20.9347 100.795 20.7699C101.096 20.6051 101.343 20.3636 101.536 20.0455C101.729 19.7216 101.852 19.3295 101.903 18.8693H105.798C105.758 19.9489 105.488 20.892 104.988 21.6989C104.494 22.5057 103.798 23.1335 102.9 23.5824C102.008 24.0256 100.948 24.2472 99.7209 24.2472ZM112.098 6.54545V24H107.93V6.54545H112.098ZM120.87 24.2472C119.501 24.2472 118.319 23.9773 117.325 23.4375C116.336 22.892 115.575 22.1165 115.04 21.1108C114.512 20.0994 114.248 18.8977 114.248 17.5057C114.248 16.1534 114.515 14.9716 115.049 13.9602C115.583 12.9432 116.336 12.1534 117.308 11.5909C118.279 11.0227 119.424 10.7386 120.742 10.7386C121.674 10.7386 122.526 10.8835 123.299 11.1733C124.072 11.4631 124.739 11.892 125.302 12.4602C125.864 13.0284 126.302 13.7301 126.614 14.5653C126.927 15.3949 127.083 16.3466 127.083 17.4205V18.4602H115.705V16.0398H123.205C123.2 15.5966 123.094 15.2017 122.89 14.8551C122.685 14.5085 122.404 14.2386 122.046 14.0455C121.694 13.8466 121.288 13.7472 120.827 13.7472C120.362 13.7472 119.944 13.8523 119.575 14.0625C119.205 14.267 118.913 14.5483 118.697 14.9062C118.481 15.2585 118.367 15.6591 118.356 16.108V18.571C118.356 19.1051 118.461 19.5739 118.671 19.9773C118.881 20.375 119.18 20.6847 119.566 20.9062C119.952 21.1278 120.413 21.2386 120.947 21.2386C121.316 21.2386 121.651 21.1875 121.952 21.0852C122.254 20.983 122.512 20.8324 122.728 20.6335C122.944 20.4347 123.106 20.1903 123.214 19.9006L127.04 20.0114C126.881 20.8693 126.532 21.6165 125.992 22.2528C125.458 22.8835 124.756 23.375 123.887 23.7273C123.018 24.0739 122.012 24.2472 120.87 24.2472Z" fill="black"/>
<path d="M129.212 6.54545H134.436L138.868 17.3523H139.072L143.504 6.54545H148.729V24H144.621V13.2784H144.476L140.283 23.8892H137.658L133.464 13.2188H133.32V24H129.212V6.54545ZM157.479 24.2472C156.11 24.2472 154.928 23.9773 153.934 23.4375C152.945 22.892 152.184 22.1165 151.65 21.1108C151.121 20.0994 150.857 18.8977 150.857 17.5057C150.857 16.1534 151.124 14.9716 151.658 13.9602C152.192 12.9432 152.945 12.1534 153.917 11.5909C154.888 11.0227 156.033 10.7386 157.352 10.7386C158.283 10.7386 159.136 10.8835 159.908 11.1733C160.681 11.4631 161.349 11.892 161.911 12.4602C162.474 13.0284 162.911 13.7301 163.224 14.5653C163.536 15.3949 163.692 16.3466 163.692 17.4205V18.4602H152.315V16.0398H159.815C159.809 15.5966 159.704 15.2017 159.499 14.8551C159.295 14.5085 159.013 14.2386 158.656 14.0455C158.303 13.8466 157.897 13.7472 157.437 13.7472C156.971 13.7472 156.553 13.8523 156.184 14.0625C155.815 14.267 155.522 14.5483 155.306 14.9062C155.09 15.2585 154.977 15.6591 154.965 16.108V18.571C154.965 19.1051 155.07 19.5739 155.281 19.9773C155.491 20.375 155.789 20.6847 156.175 20.9062C156.562 21.1278 157.022 21.2386 157.556 21.2386C157.925 21.2386 158.261 21.1875 158.562 21.0852C158.863 20.983 159.121 20.8324 159.337 20.6335C159.553 20.4347 159.715 20.1903 159.823 19.9006L163.65 20.0114C163.491 20.8693 163.141 21.6165 162.602 22.2528C162.067 22.8835 161.366 23.375 160.496 23.7273C159.627 24.0739 158.621 24.2472 157.479 24.2472ZM173.21 10.9091V13.9773H164.952V10.9091H173.21ZM166.682 7.77273H170.849V19.8835C170.849 20.1392 170.889 20.3466 170.969 20.5057C171.054 20.6591 171.176 20.7699 171.335 20.8381C171.494 20.9006 171.685 20.9318 171.906 20.9318C172.065 20.9318 172.233 20.9176 172.409 20.8892C172.591 20.8551 172.727 20.8267 172.818 20.804L173.449 23.8125C173.25 23.8693 172.969 23.9403 172.605 24.0256C172.247 24.1108 171.818 24.1648 171.318 24.1875C170.341 24.233 169.503 24.1193 168.804 23.8466C168.111 23.5682 167.58 23.1364 167.21 22.5511C166.847 21.9659 166.67 21.2301 166.682 20.3438V7.77273ZM175.337 24V10.9091H179.385V13.2955H179.521C179.76 12.4318 180.149 11.7898 180.689 11.3693C181.229 10.9432 181.857 10.7301 182.572 10.7301C182.766 10.7301 182.964 10.7443 183.169 10.7727C183.374 10.7955 183.564 10.8324 183.74 10.8835V14.5057C183.541 14.4375 183.28 14.3835 182.956 14.3438C182.638 14.304 182.354 14.2841 182.104 14.2841C181.609 14.2841 181.163 14.3949 180.766 14.6165C180.374 14.8324 180.064 15.1364 179.837 15.5284C179.615 15.9148 179.504 16.3693 179.504 16.892V24H175.337ZM185.438 24V10.9091H189.606V24H185.438ZM187.526 9.38352C186.941 9.38352 186.438 9.19034 186.018 8.80398C185.597 8.41193 185.387 7.94034 185.387 7.3892C185.387 6.84375 185.597 6.37784 186.018 5.99148C186.438 5.59943 186.941 5.40341 187.526 5.40341C188.117 5.40341 188.62 5.59943 189.035 5.99148C189.455 6.37784 189.665 6.84375 189.665 7.3892C189.665 7.94034 189.455 8.41193 189.035 8.80398C188.62 9.19034 188.117 9.38352 187.526 9.38352ZM198.369 24.2472C196.989 24.2472 195.804 23.9631 194.815 23.3949C193.832 22.8267 193.077 22.0369 192.548 21.0256C192.02 20.0085 191.756 18.8324 191.756 17.4972C191.756 16.1562 192.02 14.9801 192.548 13.9688C193.082 12.9517 193.841 12.1591 194.824 11.5909C195.813 11.0227 196.991 10.7386 198.361 10.7386C199.571 10.7386 200.625 10.9574 201.523 11.3949C202.426 11.8324 203.131 12.4517 203.636 13.2528C204.148 14.0483 204.418 14.983 204.446 16.0568H200.551C200.472 15.3864 200.244 14.8608 199.869 14.4801C199.5 14.0994 199.017 13.9091 198.42 13.9091C197.938 13.9091 197.514 14.0455 197.151 14.3182C196.787 14.5852 196.503 14.983 196.298 15.5114C196.099 16.0341 196 16.6818 196 17.4545C196 18.2273 196.099 18.8807 196.298 19.4148C196.503 19.9432 196.787 20.3437 197.151 20.6165C197.514 20.8835 197.938 21.017 198.42 21.017C198.807 21.017 199.148 20.9347 199.443 20.7699C199.744 20.6051 199.991 20.3636 200.185 20.0455C200.378 19.7216 200.5 19.3295 200.551 18.8693H204.446C204.406 19.9489 204.136 20.892 203.636 21.6989C203.142 22.5057 202.446 23.1335 201.548 23.5824C200.656 24.0256 199.597 24.2472 198.369 24.2472ZM218.008 14.9062L214.181 15.0085C214.141 14.7358 214.033 14.4943 213.857 14.2841C213.681 14.0682 213.451 13.9006 213.167 13.7812C212.888 13.6562 212.565 13.5938 212.195 13.5938C211.712 13.5938 211.3 13.6903 210.96 13.8835C210.624 14.0767 210.46 14.3381 210.465 14.6676C210.46 14.9233 210.562 15.1449 210.772 15.3324C210.988 15.5199 211.371 15.6705 211.923 15.7841L214.445 16.2614C215.752 16.5114 216.724 16.9261 217.36 17.5057C218.002 18.0852 218.326 18.8523 218.332 19.8068C218.326 20.7045 218.059 21.4858 217.531 22.1506C217.008 22.8153 216.292 23.3324 215.383 23.7017C214.474 24.0653 213.434 24.2472 212.263 24.2472C210.394 24.2472 208.92 23.8636 207.84 23.0966C206.766 22.3239 206.153 21.2898 205.999 19.9943L210.116 19.892C210.207 20.3693 210.442 20.733 210.823 20.983C211.204 21.233 211.69 21.358 212.281 21.358C212.815 21.358 213.249 21.2585 213.585 21.0597C213.92 20.8608 214.09 20.5966 214.096 20.267C214.09 19.9716 213.96 19.7358 213.704 19.5597C213.448 19.3778 213.048 19.2358 212.502 19.1335L210.218 18.6989C208.906 18.4602 207.928 18.0199 207.286 17.3778C206.644 16.7301 206.326 15.9062 206.332 14.9062C206.326 14.0312 206.559 13.2841 207.031 12.6648C207.502 12.0398 208.173 11.5625 209.042 11.233C209.911 10.9034 210.937 10.7386 212.119 10.7386C213.891 10.7386 215.289 11.1108 216.312 11.8551C217.335 12.5937 217.9 13.6108 218.008 14.9062Z" fill="#3DBE9B"/>
<g clip-path="url(#clip0_349_52)">
<path d="M8.619 22.1994C8.23374 22.0963 6.98188 21.5263 6.69043 21.2351" stroke="#3DBE9B" stroke-width="0.5" stroke-linecap="round" stroke-linejoin="round"/>
<path d="M15.1036 20.1775L14.9063 25.17L14.88 25.4684L9.35663 25.075C9.04101 25.0479 8.74731 24.9054 8.47552 24.6476C8.20374 24.3899 7.9977 24.0937 7.85743 23.759C7.76099 23.5148 7.69742 23.2661 7.66674 23.0129C7.63605 22.7596 7.65359 22.4657 7.71934 22.1311C7.7851 21.7964 7.8377 21.5477 7.87715 21.3849C7.91661 21.2221 8.01085 20.9327 8.1599 20.5167C8.30894 20.1006 8.39223 19.8609 8.40977 19.7976C9.09362 19.9062 11.3249 20.0328 15.1036 20.1775ZM10.0142 12.2276L12.3814 17.3692L10.4482 16.1211C9.89582 16.7723 9.40705 17.4258 8.98183 18.0815C8.55662 18.7372 8.2388 19.3025 8.02839 19.7773C7.81797 20.2521 7.64482 20.6795 7.50893 21.0593C7.37303 21.4392 7.29194 21.7241 7.26563 21.914L7.21303 22.1989L4.71435 17.3557C4.56531 17.1205 4.4864 16.8673 4.47764 16.596C4.46887 16.3246 4.49517 16.1121 4.55654 15.9583L4.66175 15.7141C4.9686 15.1443 5.46834 14.2942 6.16096 13.1636L4.31982 11.9969L10.0142 12.2276ZM26.203 19.2414L23.7306 24.1118C23.6254 24.3741 23.4654 24.5843 23.2506 24.7426C23.0358 24.9009 22.8451 24.9936 22.6785 25.0207L22.4418 25.075C21.8193 25.1383 20.8593 25.1926 19.5618 25.2378L19.667 27.4627L16.6423 22.4838L19.4171 17.5727L19.5092 19.9197C20.9996 20.0644 22.2402 20.0871 23.2309 19.9876C24.2216 19.8881 24.9668 19.7388 25.4665 19.5399L26.203 19.2414ZM15.8795 6.70601C15.4674 7.2758 14.3058 9.24294 12.3945 12.6074L8.22565 10.0705L7.97579 9.90769L10.9347 5.07804C11.1101 4.79766 11.3731 4.59417 11.7238 4.46755C12.0745 4.34093 12.4252 4.29571 12.7759 4.33188C12.9863 4.34997 13.1989 4.40424 13.4137 4.49468C13.6285 4.58512 13.8126 4.68009 13.966 4.77958C14.1195 4.87906 14.3014 5.02829 14.5118 5.22727C14.7222 5.42624 14.88 5.58226 14.9852 5.69531C15.0904 5.80837 15.2483 5.98699 15.4587 6.23119C15.6691 6.47538 15.8094 6.63366 15.8795 6.70601ZM24.4934 10.8709L27.2814 15.7955C27.4392 16.1302 27.494 16.4739 27.4458 16.8266C27.3975 17.1793 27.277 17.514 27.0841 17.8305C26.9701 18.0114 26.8255 18.1787 26.6501 18.3325C26.4748 18.4862 26.3082 18.6128 26.1504 18.7123C25.9926 18.8118 25.78 18.9113 25.5126 19.0108C25.2452 19.1103 25.0391 19.1826 24.8945 19.2278C24.7498 19.2731 24.5241 19.3364 24.2172 19.4178C23.9103 19.4992 23.7087 19.5534 23.6123 19.5806C23.3142 18.9294 22.1525 16.9577 20.1273 13.6656L24.2435 11.0201L24.4934 10.8709ZM22.6128 7.80489L24.4802 6.67888L21.587 11.7392L16.0768 11.4678L18.0626 10.3011C17.7645 9.49618 17.4357 8.7455 17.0762 8.04909C16.7168 7.35268 16.3858 6.79419 16.0833 6.37363C15.7809 5.95307 15.4981 5.5913 15.2351 5.28832C14.9721 4.98533 14.7661 4.77505 14.617 4.65748L14.3934 4.48111L19.7196 4.49468C19.9914 4.46755 20.2456 4.51503 20.4823 4.63713C20.719 4.75923 20.89 4.88811 20.9952 5.02377L21.1399 5.22727C21.4818 5.77897 21.9728 6.63818 22.6128 7.80489Z" fill="#3DBE9B"/>
</g>
<defs>
<clipPath id="clip0_349_52">
<rect width="27" height="27" fill="white"/>
</clipPath>
</defs>
</svg>
